<svg width="340" height="327" viewBox="0 0 340 327" fill="none" xmlns="http://www.w3.org/2000/svg">
<path d="M105.46 222.57H233.92L258.74 265.93H80.6399L105.46 222.57Z" fill="white"/>
<path fill-rule="evenodd" clip-rule="evenodd" d="M194.51 153.8L169.69 110.44L144.87 153.8H194.5H194.51ZM201.78 166.51H137.61L112.79 209.87H226.6L201.78 166.51Z" fill="white"/>
<path d="M270.85 286.61L296.88 286.56L169.68 64.26L42.49 286.56L68.52 286.61L0 326.65L13.09 301.45L20.81 286.56L169.68 0L318.56 286.56L326.28 301.45L339.37 326.65L270.85 286.61Z" fill="white"/>
<path d="M98.1898 321.54H95.6399L92.0798 312.19H77.7599C77.2499 313.66 76.6899 315.22 76.0899 316.85C75.4899 318.49 74.9098 320.05 74.3598 321.54H72.0999C73.0599 319.02 73.9999 316.56 74.9299 314.15C75.8599 311.74 76.7799 309.35 77.6999 306.96C78.6199 304.58 79.5498 302.18 80.4698 299.77C81.3998 297.36 82.3399 294.91 83.2999 292.41H86.2999L98.1799 321.53L98.1898 321.54ZM91.4698 310.52L84.7198 294.34L78.3199 310.52H91.4698Z" fill="white"/>
<path d="M100.44 323.05H94.5999L91.0399 313.7H78.8299C78.4099 314.87 77.9699 316.1 77.4999 317.38L75.4099 323.06H69.9099L70.6899 321.01C71.6499 318.49 72.5899 316.03 73.5299 313.62L82.2799 290.92H87.3399L100.45 323.06L100.44 323.05ZM80.5399 309H89.1999L84.7499 298.35L80.5299 309H80.5399Z" fill="white"/>
<path d="M140.2 321.54H137.86L134.96 313.81C134.68 313.07 134.36 312.37 134.02 311.71C133.68 311.05 133.27 310.48 132.81 310C132.35 309.52 131.82 309.13 131.23 308.84C130.63 308.56 129.94 308.41 129.14 308.41H118.96V321.53H116.83V292.44H129.93C131.15 292.44 132.34 292.55 133.48 292.77C134.63 292.99 135.64 293.38 136.54 293.95C137.43 294.52 138.15 295.3 138.68 296.3C139.21 297.3 139.48 298.58 139.48 300.14C139.48 301.11 139.36 302.02 139.12 302.86C138.88 303.7 138.52 304.45 138.03 305.12C137.54 305.79 136.92 306.35 136.17 306.82C135.41 307.29 134.53 307.63 133.53 307.84C134.08 308.27 134.53 308.67 134.88 309.06C135.23 309.45 135.54 309.87 135.8 310.31C136.05 310.75 136.28 311.24 136.49 311.77C136.69 312.3 136.93 312.91 137.19 313.6L140.19 321.52L140.2 321.54ZM118.98 306.29H129.08C130.51 306.29 131.75 306.18 132.77 305.97C133.79 305.76 134.64 305.41 135.31 304.92C135.98 304.44 136.47 303.8 136.79 303.02C137.11 302.24 137.27 301.28 137.27 300.15C137.27 298.15 136.64 296.72 135.37 295.86C134.1 295 132.21 294.57 129.7 294.57H118.99V306.29H118.98Z" fill="white"/>
<path d="M142.39 323.05H136.81L133.55 314.34C133.29 313.66 133 313.02 132.69 312.42C132.41 311.89 132.09 311.43 131.72 311.04C131.39 310.69 131.01 310.41 130.58 310.21C130.2 310.03 129.71 309.93 129.15 309.93H120.49V323.05H115.34V290.94H129.95C131.26 290.94 132.55 291.06 133.78 291.3C135.1 291.56 136.3 292.02 137.35 292.69C138.47 293.4 139.36 294.38 140.02 295.61C140.67 296.83 140.99 298.36 140.99 300.16C140.99 301.28 140.85 302.34 140.57 303.3C140.29 304.29 139.85 305.22 139.25 306.03C138.65 306.85 137.88 307.56 136.97 308.12C136.77 308.24 136.56 308.36 136.35 308.47C136.63 308.82 136.88 309.18 137.11 309.57C137.41 310.09 137.67 310.64 137.9 311.25L142.39 323.06V323.05ZM120.49 304.78H129.07C130.4 304.78 131.53 304.68 132.46 304.49C133.27 304.32 133.93 304.06 134.4 303.7C134.85 303.38 135.16 302.96 135.38 302.44C135.62 301.85 135.75 301.07 135.75 300.14C135.75 297.94 134.82 297.31 134.51 297.1C133.5 296.42 131.88 296.07 129.69 296.07H120.49V304.76V304.78Z" fill="white"/>
<path d="M171.52 322.07C169.55 322.07 167.84 321.86 166.37 321.44C164.9 321.03 163.66 320.43 162.67 319.66C161.67 318.89 160.9 317.96 160.37 316.87C159.84 315.78 159.53 314.56 159.44 313.19H161.54C161.75 314.5 162.15 315.59 162.74 316.46C163.33 317.33 164.04 318.02 164.91 318.53C165.77 319.04 166.75 319.41 167.84 319.62C168.93 319.83 170.11 319.94 171.35 319.94C172.59 319.94 173.81 319.8 174.85 319.53C175.88 319.26 176.77 318.86 177.51 318.34C178.24 317.82 178.81 317.19 179.2 316.45C179.59 315.72 179.78 314.89 179.78 313.97C179.78 313 179.61 312.18 179.28 311.51C178.94 310.85 178.38 310.27 177.58 309.77C176.78 309.27 175.73 308.83 174.43 308.44C173.13 308.05 171.51 307.65 169.58 307.24C167.99 306.89 166.62 306.48 165.47 306.02C164.33 305.56 163.39 305.02 162.64 304.41C161.9 303.8 161.35 303.1 160.99 302.31C160.64 301.52 160.46 300.61 160.46 299.56C160.46 298.43 160.7 297.39 161.18 296.45C161.66 295.51 162.33 294.71 163.21 294.03C164.08 293.36 165.14 292.83 166.37 292.46C167.6 292.09 168.96 291.9 170.45 291.9C171.94 291.9 173.3 292.07 174.54 292.42C175.78 292.77 176.87 293.27 177.79 293.92C178.72 294.58 179.47 295.37 180.05 296.31C180.62 297.25 180.99 298.31 181.15 299.5H179.1C178.91 298.72 178.59 297.99 178.14 297.32C177.69 296.65 177.12 296.07 176.43 295.58C175.73 295.09 174.89 294.71 173.93 294.43C172.96 294.16 171.86 294.02 170.62 294.02C168.02 294.02 166.04 294.5 164.71 295.45C163.38 296.4 162.71 297.72 162.71 299.38C162.71 300.14 162.83 300.81 163.08 301.37C163.33 301.93 163.75 302.44 164.34 302.9C164.93 303.35 165.72 303.75 166.69 304.09C167.66 304.44 168.88 304.76 170.33 305.06C171.18 305.24 172.06 305.42 172.96 305.62C173.86 305.82 174.74 306.05 175.6 306.31C176.46 306.57 177.28 306.9 178.06 307.29C178.84 307.68 179.52 308.16 180.09 308.72C180.66 309.29 181.12 309.97 181.47 310.75C181.81 311.54 181.99 312.47 181.99 313.55C181.99 314.79 181.73 315.93 181.21 316.97C180.68 318 179.96 318.9 179.03 319.65C178.1 320.41 176.99 320.99 175.71 321.4C174.43 321.82 173.03 322.03 171.53 322.03L171.52 322.07Z" fill="white"/>
<path d="M171.52 323.58C169.43 323.58 167.56 323.35 165.96 322.9C164.32 322.44 162.9 321.75 161.74 320.87C160.55 319.95 159.63 318.84 159 317.54C158.38 316.28 158.02 314.86 157.92 313.3L157.82 311.69H162.82L163.02 312.96C163.2 314.05 163.52 314.94 163.98 315.63C164.44 316.32 165 316.85 165.67 317.25C166.37 317.67 167.2 317.98 168.12 318.15C170.14 318.54 172.66 318.56 174.45 318.08C175.31 317.86 176.04 317.53 176.62 317.11C177.16 316.72 177.56 316.28 177.84 315.75C178.12 315.23 178.25 314.65 178.25 313.97C178.25 313.24 178.13 312.64 177.91 312.19C177.7 311.78 177.31 311.4 176.76 311.05C176.08 310.63 175.15 310.24 173.98 309.88C172.72 309.51 171.13 309.11 169.25 308.72C167.57 308.35 166.11 307.91 164.89 307.42C163.61 306.9 162.53 306.29 161.67 305.58C160.74 304.81 160.05 303.92 159.6 302.93C159.16 301.96 158.94 300.82 158.94 299.56C158.94 298.19 159.24 296.92 159.82 295.77C160.4 294.63 161.23 293.64 162.28 292.84C163.29 292.06 164.52 291.45 165.92 291.03C168.64 290.21 172.17 290.22 174.93 290.98C176.35 291.38 177.6 291.96 178.66 292.71C179.75 293.47 180.65 294.43 181.33 295.54C182.01 296.66 182.45 297.93 182.64 299.32L182.87 301.03H177.92L177.63 299.88C177.48 299.27 177.23 298.69 176.88 298.16C176.55 297.66 176.11 297.21 175.57 296.83C175.01 296.44 174.32 296.13 173.52 295.9C172.69 295.67 171.72 295.55 170.63 295.55C168.36 295.55 166.67 295.94 165.6 296.7C164.66 297.37 164.23 298.23 164.23 299.4C164.23 299.95 164.31 300.42 164.48 300.79C164.62 301.12 164.88 301.42 165.27 301.73C165.74 302.08 166.39 302.41 167.21 302.7C168.11 303.02 169.26 303.33 170.65 303.62L173.29 304.18C174.24 304.38 175.16 304.62 176.06 304.9C177 305.19 177.9 305.55 178.75 305.97C179.66 306.43 180.47 307 181.16 307.68C181.87 308.38 182.44 309.22 182.87 310.18C183.3 311.17 183.52 312.31 183.52 313.59C183.52 315.05 183.2 316.43 182.58 317.68C181.95 318.91 181.09 319.98 180 320.86C178.93 321.73 177.64 322.41 176.19 322.88C174.76 323.34 173.2 323.58 171.54 323.58H171.52Z" fill="white"/>
<path d="M223.57 321.54H202.56V292.45H222.86V294.58H204.69V305.34H221.72V307.47H204.69V319.43H223.58V321.56L223.57 321.54Z" fill="white"/>
<path d="M225.08 323.05H201.05V290.94H224.37V296.09H206.2V303.82H223.23V308.97H206.2V317.9H225.08V323.05Z" fill="white"/>
<path d="M254.91 322.07C252.94 322.07 251.23 321.86 249.76 321.44C248.29 321.03 247.05 320.43 246.06 319.66C245.06 318.89 244.29 317.96 243.76 316.87C243.23 315.78 242.92 314.56 242.83 313.19H244.93C245.14 314.5 245.54 315.59 246.13 316.46C246.72 317.33 247.43 318.02 248.3 318.53C249.16 319.04 250.14 319.41 251.23 319.62C252.32 319.83 253.5 319.94 254.74 319.94C255.98 319.94 257.2 319.8 258.24 319.53C259.27 319.26 260.16 318.86 260.9 318.34C261.63 317.82 262.2 317.19 262.59 316.45C262.98 315.72 263.17 314.89 263.17 313.97C263.17 313 263 312.18 262.67 311.51C262.33 310.85 261.77 310.27 260.97 309.77C260.17 309.27 259.12 308.83 257.82 308.44C256.52 308.05 254.9 307.65 252.97 307.24C251.38 306.89 250.01 306.48 248.86 306.02C247.72 305.56 246.78 305.02 246.03 304.41C245.29 303.8 244.74 303.1 244.38 302.31C244.03 301.52 243.85 300.61 243.85 299.56C243.85 298.43 244.09 297.39 244.57 296.45C245.05 295.51 245.72 294.71 246.6 294.03C247.47 293.36 248.53 292.83 249.76 292.46C250.99 292.09 252.35 291.9 253.84 291.9C255.33 291.9 256.69 292.07 257.93 292.42C259.17 292.77 260.26 293.27 261.18 293.92C262.11 294.58 262.86 295.37 263.44 296.31C264.01 297.25 264.38 298.31 264.54 299.5H262.49C262.3 298.72 261.98 297.99 261.53 297.32C261.08 296.65 260.51 296.07 259.82 295.58C259.12 295.09 258.28 294.71 257.32 294.43C256.35 294.16 255.25 294.02 254.01 294.02C251.41 294.02 249.43 294.5 248.1 295.45C246.77 296.4 246.1 297.72 246.1 299.38C246.1 300.14 246.22 300.81 246.47 301.37C246.72 301.93 247.14 302.44 247.73 302.9C248.32 303.35 249.11 303.75 250.08 304.09C251.05 304.44 252.27 304.76 253.72 305.06C254.57 305.24 255.45 305.42 256.35 305.62C257.25 305.82 258.13 306.05 258.99 306.31C259.85 306.57 260.67 306.9 261.45 307.29C262.23 307.68 262.91 308.16 263.48 308.72C264.05 309.29 264.51 309.97 264.86 310.75C265.2 311.54 265.38 312.47 265.38 313.55C265.38 314.79 265.12 315.93 264.6 316.97C264.07 318 263.35 318.9 262.42 319.65C261.49 320.41 260.38 320.99 259.1 321.4C257.82 321.82 256.42 322.03 254.92 322.03L254.91 322.07Z" fill="white"/>
<path d="M254.91 323.58C252.82 323.58 250.95 323.35 249.35 322.9C247.71 322.44 246.29 321.75 245.13 320.87C243.94 319.95 243.02 318.84 242.39 317.54C241.77 316.28 241.41 314.86 241.31 313.3L241.21 311.69H246.21L246.41 312.96C246.59 314.05 246.91 314.94 247.37 315.63C247.83 316.32 248.39 316.85 249.06 317.25C249.76 317.67 250.59 317.98 251.51 318.15C253.53 318.54 256.05 318.56 257.84 318.08C258.7 317.86 259.43 317.53 260.01 317.11C260.55 316.72 260.95 316.28 261.23 315.75C261.51 315.23 261.64 314.65 261.64 313.97C261.64 313.24 261.52 312.64 261.3 312.19C261.09 311.78 260.7 311.4 260.15 311.05C259.47 310.63 258.54 310.24 257.37 309.88C256.11 309.51 254.52 309.11 252.64 308.72C250.96 308.35 249.5 307.91 248.28 307.42C247 306.9 245.92 306.29 245.06 305.58C244.13 304.81 243.44 303.92 242.99 302.93C242.55 301.96 242.33 300.82 242.33 299.56C242.33 298.19 242.63 296.92 243.21 295.77C243.79 294.63 244.62 293.64 245.67 292.84C246.68 292.06 247.91 291.45 249.31 291.03C252.03 290.21 255.56 290.22 258.32 290.98C259.74 291.38 260.99 291.96 262.05 292.71C263.14 293.47 264.04 294.43 264.72 295.54C265.4 296.66 265.84 297.93 266.03 299.32L266.26 301.03H261.31L261.02 299.88C260.87 299.27 260.62 298.69 260.27 298.16C259.94 297.66 259.5 297.21 258.96 296.83C258.4 296.44 257.71 296.13 256.91 295.9C256.08 295.67 255.11 295.55 254.02 295.55C251.75 295.55 250.06 295.94 248.99 296.7C248.05 297.37 247.62 298.23 247.62 299.4C247.62 299.95 247.7 300.42 247.87 300.79C248.01 301.12 248.27 301.42 248.66 301.73C249.13 302.08 249.78 302.41 250.6 302.7C251.5 303.02 252.65 303.33 254.04 303.62L256.68 304.18C257.63 304.38 258.55 304.62 259.45 304.9C260.39 305.19 261.29 305.55 262.14 305.97C263.05 306.43 263.86 307 264.55 307.68C265.26 308.38 265.83 309.22 266.26 310.18C266.69 311.17 266.91 312.31 266.91 313.59C266.91 315.05 266.59 316.43 265.97 317.68C265.34 318.91 264.48 319.98 263.39 320.86C262.32 321.73 261.03 322.41 259.58 322.88C258.15 323.34 256.59 323.58 254.93 323.58H254.91Z" fill="white"/>
</svg>
